#N canvas 686 109 423 468 10;
#X declare -lib mrpeach;
#X obj -20 -143 cnv 15 420 320 empty empty empty 20 12 0 14 -257985
-66577 0;
#X obj 97 14 unpack 0 0 0 0;
#X floatatom 97 44 4 0 0 0 - - -;
#X floatatom 124 44 4 0 0 0 - - -;
#X floatatom 151 44 4 0 0 0 - - -;
#X floatatom 178 44 4 0 0 0 - - -;
#X text 58 45 from;
#X obj -10 44 unpackOSC;
#X floatatom 122 115 10 0 0 1 millisecond_delay - -;
#X obj -7 66 pipelist;
#X obj -7 112 s rcvOSC;
#X obj 303 -132 import mrpeach;
#X obj -6 182 r rcvOSC;
#X obj -6 218 routeOSC /testINT;
#X floatatom -6 260 5 0 0 0 - - -;
#X obj -10 -8 udpreceive 9996;
#X text 145 -49 Change port to listen on;
#X text -5 -96 GAmuza patch test for OSC receiving examples;
#X floatatom 120 255 9 0 0 0 - - -;
#X obj 120 213 routeOSC /testFLOAT;
#X obj 253 205 routeOSC /testSTRING;
#X msg 80 -49 port 9666;
#X symbolatom 253 262 16 0 0 0 - - -;
#X obj 253 230 symbol;
#X connect 1 0 2 0;
#X connect 1 1 3 0;
#X connect 1 2 4 0;
#X connect 1 3 5 0;
#X connect 7 0 9 0;
#X connect 7 1 8 0;
#X connect 7 1 9 1;
#X connect 9 0 10 0;
#X connect 12 0 13 0;
#X connect 12 0 19 0;
#X connect 12 0 20 0;
#X connect 13 0 14 0;
#X connect 15 0 7 0;
#X connect 15 1 1 0;
#X connect 19 0 18 0;
#X connect 20 0 23 0;
#X connect 21 0 15 0;
#X connect 23 0 22 0;
