#N canvas 434 125 323 323 10;
#X declare -lib mrpeach;
#X obj 0 1 cnv 15 320 320 empty empty empty 20 12 0 14 -257985 -66577
0;
#X obj 224 11 import mrpeach;
#X obj 41 202 packOSC;
#X obj 41 260 udpsend;
#X obj 42 289 tgl 15 0 empty empty CONNECTED 22 8 0 10 -4034 -1 -1
0 1;
#X obj 13 86 hsl 128 15 0 0.5 0 0 empty empty empty -2 -8 0 10 -262144
-1 -1 0 1;
#X msg 128 202 connect 127.0.0.1 8997;
#X floatatom 25 114 5 0 0 0 - - -;
#X msg 10 145 send /fromPD \$1;
#X text 8 39 GAmuza patch test for OSC data sending;
#X text 127 177 Send data to;
#X connect 2 0 3 0;
#X connect 3 0 4 0;
#X connect 5 0 7 0;
#X connect 5 0 8 0;
#X connect 6 0 3 0;
#X connect 8 0 2 0;
