#N canvas 538 217 370 287 10;
#X obj 170 165 osc~ 440;
#X obj 159 251 dac~;
#X obj 94 25 receive frequency;
#X obj 252 160 receive volume;
#X obj 170 205 *~;
#X obj 94 54 lop~ 5;
#X obj 212 118 +~;
#X obj 227 93 *~ 20;
#X obj 227 67 osc~ 6;
#X obj 252 188 lop~ 5;
#X text 271 80 <-- vibrato;
#X text 12 53 smoothing -->;
#X connect 0 0 4 0;
#X connect 2 0 5 0;
#X connect 3 0 9 0;
#X connect 4 0 1 0;
#X connect 4 0 1 1;
#X connect 5 0 6 0;
#X connect 6 0 0 0;
#X connect 7 0 6 1;
#X connect 8 0 7 0;
#X connect 9 0 4 1;
