#N canvas 590 417 508 403 10;
#X declare -path rc;
#X obj 29 25 adc~ 1;
#X obj 28 362 dac~ 1 2;
#X obj 326 18 declare -path rc;
#X obj 28 239 e_pshift~;
#N canvas 666 63 404 247 scope~ 0;
#X obj 26 28 inlet~ audio;
#X obj 75 154 metro 100;
#X msg 75 125 1;
#X obj 56 59 clip~ -1 1;
#X obj 75 95 loadbang;
#N canvas 0 22 450 300 (subpatch) 0;
#X array scope 512 float 2;
#X coords 0 1 512 -1 200 140 1;
#X restore 168 27 graph;
#X obj 56 190 tabwrite~ scope;
#X obj 26 222 outlet~;
#X connect 0 0 3 0;
#X connect 0 0 7 0;
#X connect 1 0 6 0;
#X connect 2 0 1 0;
#X connect 3 0 6 0;
#X connect 4 0 2 0;
#X restore 28 268 pd scope~;
#X obj 28 207 *~ 1;
#X obj 56 124 clip 0 1;
#X obj 123 149 clip 0 1;
#X obj 28 303 *~ 1;
#X obj 260 146 - 1;
#X obj 260 173 abs;
#X msg 233 226 wet \$1;
#X msg 260 201 dry \$1;
#X obj 233 119 t f f;
#X obj 319 252 t a;
#X text 179 301 Dan Wilcox 2012 GPL 3;
#X text 178 317 danomatika.com | robotcowboy.com;
#X obj 124 274 r volume;
#X obj 124 301 lop~ 5;
#X obj 42 332 *~;
#X obj 81 55 receive inGain;
#X obj 132 93 receive outGain;
#X obj 247 83 receive mix;
#X obj 316 113 receive transpose;
#X connect 0 0 5 0;
#X connect 3 0 4 0;
#X connect 4 0 8 0;
#X connect 5 0 3 0;
#X connect 6 0 5 1;
#X connect 7 0 8 1;
#X connect 8 0 19 0;
#X connect 9 0 10 0;
#X connect 10 0 12 0;
#X connect 11 0 14 0;
#X connect 12 0 14 0;
#X connect 13 0 11 0;
#X connect 13 1 9 0;
#X connect 14 0 3 1;
#X connect 17 0 18 0;
#X connect 18 0 19 1;
#X connect 19 0 1 0;
#X connect 20 0 6 0;
#X connect 21 0 7 0;
#X connect 22 0 13 0;
#X connect 23 0 14 0;
